<svg width="165" height="132" viewBox="0 0 165 132" fill="none" xmlns="http://www.w3.org/2000/svg">
<ellipse cx="2.94183" cy="3.14286" rx="2.94183" ry="3.14286" fill="#F4F4F4"/>
<ellipse cx="2.94183" cy="21.1021" rx="2.94183" ry="3.14286" fill="#F4F4F4"/>
<ellipse cx="2.94183" cy="39.0612" rx="2.94183" ry="3.14286" fill="#F4F4F4"/>
<ellipse cx="2.94183" cy="57.0204" rx="2.94183" ry="3.14286" fill="#F4F4F4"/>
<ellipse cx="2.94183" cy="74.9795" rx="2.94183" ry="3.14286" fill="#F4F4F4"/>
<ellipse cx="2.94183" cy="92.9388" rx="2.94183" ry="3.14286" fill="#F4F4F4"/>
<ellipse cx="2.94183" cy="110.898" rx="2.94183" ry="3.14286" fill="#F4F4F4"/>
<ellipse cx="2.94183" cy="128.857" rx="2.94183" ry="3.14286" fill="#F4F4F4"/>
<ellipse cx="20.5927" cy="3.14286" rx="2.94183" ry="3.14286" fill="#F4F4F4"/>
<ellipse cx="20.5927" cy="21.1021" rx="2.94183" ry="3.14286" fill="#F4F4F4"/>
<ellipse cx="20.5927" cy="39.0612" rx="2.94183" ry="3.14286" fill="#F4F4F4"/>
<ellipse cx="20.5927" cy="57.0204" rx="2.94183" ry="3.14286" fill="#F4F4F4"/>
<ellipse cx="20.5927" cy="74.9795" rx="2.94183" ry="3.14286" fill="#F4F4F4"/>
<ellipse cx="20.5927" cy="92.9388" rx="2.94183" ry="3.14286" fill="#F4F4F4"/>
<ellipse cx="20.5927" cy="110.898" rx="2.94183" ry="3.14286" fill="#F4F4F4"/>
<ellipse cx="20.5927" cy="128.857" rx="2.94183" ry="3.14286" fill="#F4F4F4"/>
<ellipse cx="38.2438" cy="3.14286" rx="2.94183" ry="3.14286" fill="#F4F4F4"/>
<ellipse cx="38.2438" cy="21.1021" rx="2.94183" ry="3.14286" fill="#F4F4F4"/>
<ellipse cx="38.2438" cy="39.0612" rx="2.94183" ry="3.14286" fill="#F4F4F4"/>
<ellipse cx="38.2438" cy="57.0204" rx="2.94183" ry="3.14286" fill="#F4F4F4"/>
<ellipse cx="38.2438" cy="74.9795" rx="2.94183" ry="3.14286" fill="#F4F4F4"/>
<ellipse cx="38.2438" cy="92.9388" rx="2.94183" ry="3.14286" fill="#F4F4F4"/>
<ellipse cx="38.2438" cy="110.898" rx="2.94183" ry="3.14286" fill="#F4F4F4"/>
<ellipse cx="38.2438" cy="128.857" rx="2.94183" ry="3.14286" fill="#F4F4F4"/>
<ellipse cx="55.895" cy="3.14286" rx="2.94183" ry="3.14286" fill="#F4F4F4"/>
<ellipse cx="55.895" cy="21.1021" rx="2.94183" ry="3.14286" fill="#F4F4F4"/>
<ellipse cx="55.895" cy="39.0612" rx="2.94183" ry="3.14286" fill="#F4F4F4"/>
<ellipse cx="55.895" cy="57.0204" rx="2.94183" ry="3.14286" fill="#F4F4F4"/>
<ellipse cx="55.895" cy="74.9795" rx="2.94183" ry="3.14286" fill="#F4F4F4"/>
<ellipse cx="55.895" cy="92.9388" rx="2.94183" ry="3.14286" fill="#F4F4F4"/>
<ellipse cx="55.895" cy="110.898" rx="2.94183" ry="3.14286" fill="#F4F4F4"/>
<ellipse cx="55.895" cy="128.857" rx="2.94183" ry="3.14286" fill="#F4F4F4"/>
<ellipse cx="73.5458" cy="3.14286" rx="2.94183" ry="3.14286" fill="#F4F4F4"/>
<ellipse cx="73.5458" cy="21.1021" rx="2.94183" ry="3.14286" fill="#F4F4F4"/>
<ellipse cx="73.5458" cy="39.0612" rx="2.94183" ry="3.14286" fill="#F4F4F4"/>
<ellipse cx="73.5458" cy="57.0204" rx="2.94183" ry="3.14286" fill="#F4F4F4"/>
<ellipse cx="73.5458" cy="74.9795" rx="2.94183" ry="3.14286" fill="#F4F4F4"/>
<ellipse cx="73.5458" cy="92.9388" rx="2.94183" ry="3.14286" fill="#F4F4F4"/>
<ellipse cx="73.5458" cy="110.898" rx="2.94183" ry="3.14286" fill="#F4F4F4"/>
<ellipse cx="73.5458" cy="128.857" rx="2.94183" ry="3.14286" fill="#F4F4F4"/>
<ellipse cx="91.1967" cy="3.14286" rx="2.94183" ry="3.14286" fill="#F4F4F4"/>
<ellipse cx="91.1967" cy="21.1021" rx="2.94183" ry="3.14286" fill="#F4F4F4"/>
<ellipse cx="91.1967" cy="39.0612" rx="2.94183" ry="3.14286" fill="#F4F4F4"/>
<ellipse cx="91.1967" cy="57.0204" rx="2.94183" ry="3.14286" fill="#F4F4F4"/>
<ellipse cx="91.1967" cy="74.9795" rx="2.94183" ry="3.14286" fill="#F4F4F4"/>
<ellipse cx="91.1967" cy="92.9388" rx="2.94183" ry="3.14286" fill="#F4F4F4"/>
<ellipse cx="91.1967" cy="110.898" rx="2.94183" ry="3.14286" fill="#F4F4F4"/>
<ellipse cx="91.1967" cy="128.857" rx="2.94183" ry="3.14286" fill="#F4F4F4"/>
<ellipse cx="108.848" cy="3.14286" rx="2.94183" ry="3.14286" fill="#F4F4F4"/>
<ellipse cx="108.848" cy="21.1021" rx="2.94183" ry="3.14286" fill="#F4F4F4"/>
<ellipse cx="108.848" cy="39.0612" rx="2.94183" ry="3.14286" fill="#F4F4F4"/>
<ellipse cx="108.848" cy="57.0204" rx="2.94183" ry="3.14286" fill="#F4F4F4"/>
<ellipse cx="108.848" cy="74.9795" rx="2.94183" ry="3.14286" fill="#F4F4F4"/>
<ellipse cx="108.848" cy="92.9388" rx="2.94183" ry="3.14286" fill="#F4F4F4"/>
<ellipse cx="108.848" cy="110.898" rx="2.94183" ry="3.14286" fill="#F4F4F4"/>
<ellipse cx="108.848" cy="128.857" rx="2.94183" ry="3.14286" fill="#F4F4F4"/>
<ellipse cx="126.499" cy="3.14286" rx="2.94183" ry="3.14286" fill="#F4F4F4"/>
<ellipse cx="126.499" cy="21.1021" rx="2.94183" ry="3.14286" fill="#F4F4F4"/>
<ellipse cx="126.499" cy="39.0612" rx="2.94183" ry="3.14286" fill="#F4F4F4"/>
<ellipse cx="126.499" cy="57.0204" rx="2.94183" ry="3.14286" fill="#F4F4F4"/>
<ellipse cx="126.499" cy="74.9795" rx="2.94183" ry="3.14286" fill="#F4F4F4"/>
<ellipse cx="126.499" cy="92.9388" rx="2.94183" ry="3.14286" fill="#F4F4F4"/>
<ellipse cx="126.499" cy="110.898" rx="2.94183" ry="3.14286" fill="#F4F4F4"/>
<ellipse cx="126.499" cy="128.857" rx="2.94183" ry="3.14286" fill="#F4F4F4"/>
<ellipse cx="144.15" cy="3.14286" rx="2.94183" ry="3.14286" fill="#F4F4F4"/>
<ellipse cx="144.15" cy="21.1021" rx="2.94183" ry="3.14286" fill="#F4F4F4"/>
<ellipse cx="144.15" cy="39.0612" rx="2.94183" ry="3.14286" fill="#F4F4F4"/>
<ellipse cx="144.15" cy="57.0204" rx="2.94183" ry="3.14286" fill="#F4F4F4"/>
<ellipse cx="144.15" cy="74.9795" rx="2.94183" ry="3.14286" fill="#F4F4F4"/>
<ellipse cx="144.15" cy="92.9388" rx="2.94183" ry="3.14286" fill="#F4F4F4"/>
<ellipse cx="144.15" cy="110.898" rx="2.94183" ry="3.14286" fill="#F4F4F4"/>
<ellipse cx="144.15" cy="128.857" rx="2.94183" ry="3.14286" fill="#F4F4F4"/>
<ellipse cx="161.801" cy="3.14286" rx="2.94183" ry="3.14286" fill="#F4F4F4"/>
<ellipse cx="161.801" cy="21.1021" rx="2.94183" ry="3.14286" fill="#F4F4F4"/>
<ellipse cx="161.801" cy="39.0612" rx="2.94183" ry="3.14286" fill="#F4F4F4"/>
<ellipse cx="161.801" cy="57.0204" rx="2.94183" ry="3.14286" fill="#F4F4F4"/>
<ellipse cx="161.801" cy="74.9795" rx="2.94183" ry="3.14286" fill="#F4F4F4"/>
<ellipse cx="161.801" cy="92.9388" rx="2.94183" ry="3.14286" fill="#F4F4F4"/>
<ellipse cx="161.801" cy="110.898" rx="2.94183" ry="3.14286" fill="#F4F4F4"/>
<ellipse cx="161.801" cy="128.857" rx="2.94183" ry="3.14286" fill="#F4F4F4"/>
</svg>
